<svg version="1.1" id="gabrielle_dollan_g" xmlns="http://www.w3.org/2000/svg" xmlns:xlink="http://www.w3.org/1999/xlink" x="0px" y="0px" viewBox="0 0 575 655" style="enable-background:new 0 0 575 655;" xml:space="preserve">

					<path id="" class="gd_g_path" fill="#ff3644" d="M261.5,1.5c-18,11.4-89.1,37.6-93.2,189.6c0,0-3.3,73.5-3.3,136.5
						c0,64.6,3.3,133.2,3.3,133.2c4.9,156.1,67.8,175.7,92.3,192.8C205.1,653.5,0,608.6,0,327.5C0,41.5,205.1,1.5,261.5,1.5z
						 M507.4,1.5c-21.2,76.8-152,9-152,9c121.7,90.7,153.6,240.2,153.6,240.2v-18L507.4,1.5z M398.7,334.9l13.9,9.8v176.5
						c0,70.3-56.4,123.4-57.2,124.2c31.1-16.3,85.8-80.1,128.3-80.1c44.1,0,76.8,54.7,76.8,54.7V345.5l13.9-10.6H398.7z"></path>

			</svg>